<mxfile host="app.diagrams.net" modified="2023-03-27T16:11:25.400Z" agent="Mozilla/5.0 (X11; Ubuntu; Linux x86_64; rv:109.0) Gecko/20100101 Firefox/111.0" etag="vzo83QWoiSI6xcVDSNkd" version="21.1.1" type="github">
  <diagram name="PÃ¡gina-1" id="CXJXlOiOrODaM3HMHi4I">
    <mxGraphModel dx="472" dy="772" grid="1" gridSize="10" guides="1" tooltips="1" connect="1" arrows="1" fold="1" page="1" pageScale="1" pageWidth="827" pageHeight="1169" math="0" shadow="0">
      <root>
        <mxCell id="0" />
        <mxCell id="1" parent="0" />
        <mxCell id="282KxaGEVmYwGQcS04Fb-1" value="" style="swimlane;startSize=0;" vertex="1" parent="1">
          <mxGeometry x="120" y="120" width="560" height="720" as="geometry" />
        </mxCell>
        <mxCell id="282KxaGEVmYwGQcS04Fb-3" value="Autenticar" style="ellipse;whiteSpace=wrap;html=1;fillColor=#d5e8d4;strokeColor=#82b366;" vertex="1" parent="282KxaGEVmYwGQcS04Fb-1">
          <mxGeometry x="60" y="150" width="110" height="40" as="geometry" />
        </mxCell>
        <mxCell id="282KxaGEVmYwGQcS04Fb-5" style="edgeStyle=orthogonalEdgeStyle;rounded=0;orthogonalLoop=1;jettySize=auto;html=1;entryX=0;entryY=0.5;entryDx=0;entryDy=0;endArrow=none;endFill=0;" edge="1" parent="1" source="282KxaGEVmYwGQcS04Fb-2" target="282KxaGEVmYwGQcS04Fb-3">
          <mxGeometry relative="1" as="geometry" />
        </mxCell>
        <mxCell id="282KxaGEVmYwGQcS04Fb-2" value="&lt;div&gt;Usuario&lt;/div&gt;" style="shape=umlActor;verticalLabelPosition=bottom;verticalAlign=top;html=1;outlineConnect=0;" vertex="1" parent="1">
          <mxGeometry x="40" y="260" width="30" height="60" as="geometry" />
        </mxCell>
      </root>
    </mxGraphModel>
  </diagram>
</mxfile>
